<svg width="57" height="57" viewBox="0 0 57 57" fill="none" xmlns="http://www.w3.org/2000/svg">
<circle cx="28.5" cy="28.5" r="28" stroke="white"/>
<g clip-path="url(#clip0_19_64)">
<path d="M22.745 36.5311C22.5881 36.418 22.5313 36.4011 22.3063 36.4006C22.1642 36.4006 21.87 36.3759 21.6527 36.3465C21.4354 36.3171 21.0248 36.2826 20.7403 36.2699C20.2684 36.2487 20.1838 36.2554 19.7768 36.3465C19.5315 36.4013 19.257 36.4523 19.1669 36.4597C19.0768 36.4672 18.9749 36.4862 18.9405 36.502C18.906 36.5178 18.7769 36.5282 18.6536 36.5252C18.4639 36.5205 18.3963 36.4952 18.215 36.3611C18.079 36.2604 18.0007 36.1661 18.0006 36.1028C18.0006 36.0479 18.1902 35.7213 18.4222 35.377C18.6541 35.0326 18.8833 34.6792 18.9314 34.5916C19.0655 34.3473 19.2352 33.6482 19.2726 33.186C19.291 32.9575 19.3293 32.6811 19.3576 32.5718C19.3859 32.4626 19.4378 32.2025 19.4729 31.9938C19.5304 31.6524 19.576 31.4586 19.7536 30.8017C19.8171 30.567 19.9009 30.1351 19.985 29.6096C20.0591 29.1462 20.165 28.8011 20.3787 28.3272C20.4683 28.1285 20.5548 27.9172 20.5709 27.8576C20.6126 27.7036 20.8274 27.2039 20.9436 26.9906C21.0772 26.7453 21.2837 26.2639 21.2837 26.1976C21.2837 26.1365 21.5603 25.5782 21.9739 24.805C22.128 24.5169 22.2635 24.2526 22.2751 24.2178C22.2867 24.1829 22.3078 24.1423 22.3221 24.1275C22.3363 24.1127 22.3623 24.0436 22.3797 23.9741C22.3972 23.9046 22.466 23.7501 22.5326 23.6309C22.5992 23.5117 22.7045 23.3166 22.7667 23.1974C22.8895 22.9617 22.9378 22.8774 23.2047 22.4328C23.4198 22.0744 23.7281 21.5339 23.9532 21.1202C24.0451 20.9513 24.1428 20.7806 24.1703 20.7408C24.4957 20.27 24.6809 19.5832 24.6819 18.8444C24.6824 18.3138 24.6504 18.1534 24.4283 17.5799C24.3475 17.3713 24.258 17.1366 24.2293 17.0584C24.1632 16.8777 24.2009 15.6393 24.2806 15.3763C24.3616 15.1089 24.4279 15.0097 24.7473 14.678C24.8971 14.5225 25.0197 14.3834 25.0197 14.369C25.0197 14.3162 25.7929 13.869 26.0953 13.747C26.3945 13.6262 27.2673 13.3441 27.6802 13.2346C27.9838 13.1542 28.6535 13.0128 29.435 12.8642C31.1896 12.5305 31.4505 12.4759 31.544 12.4228C31.5987 12.3917 31.6906 12.3486 31.7482 12.3269C32.0477 12.2144 32.3831 12.0602 32.6641 11.9058C32.8368 11.811 33.1297 11.6813 33.3151 11.6177C33.5005 11.5541 33.7032 11.4824 33.7654 11.4584C34.0517 11.3479 35.8414 11.0548 36.5018 11.0102C36.9358 10.9809 38.0579 11.0172 38.3507 11.07C38.4775 11.0929 38.5205 11.1221 38.5205 11.1855C38.5205 11.2583 38.4601 11.2843 38.0959 11.3685C37.3968 11.5302 37.1077 11.6096 36.8162 11.7199C35.8797 12.0746 35.4394 12.3501 35.0427 12.8294C34.944 12.9487 34.8415 13.0706 34.8149 13.1004C34.625 13.3127 34.1333 13.979 34.1333 14.0241C34.1333 14.0546 34.0697 14.1394 33.9918 14.2125C33.914 14.2856 33.8503 14.3669 33.8503 14.3932C33.8503 14.4612 33.6269 14.7654 33.533 14.8253C33.4896 14.853 33.4541 14.8877 33.4541 14.9024C33.4541 14.9171 33.4087 14.9607 33.3532 14.9992C33.2978 15.0377 33.1386 15.1749 32.9994 15.304C32.8603 15.4332 32.7283 15.5476 32.706 15.5582C32.6838 15.5689 32.454 15.8453 32.1953 16.1724C31.5601 16.9757 31.3837 17.3939 31.3974 18.0644C31.4077 18.5664 31.469 18.7808 31.7913 19.4428C31.8984 19.6627 31.9999 19.9065 32.017 19.9847C32.034 20.0629 32.0696 20.1593 32.096 20.1991C32.2066 20.3649 32.2661 20.535 32.2329 20.5902C32.2134 20.6226 32.2486 20.7186 32.3111 20.8034C32.4717 21.0216 32.4711 21.0194 32.6304 21.8789C32.8048 22.8192 32.9196 23.2868 33.0308 23.5094C33.0768 23.6014 33.1146 23.7234 33.1147 23.7803C33.1149 23.8373 33.1383 23.9407 33.1667 24.0103C33.2295 24.1639 33.2696 24.4315 33.3156 25.0037C33.3595 25.5508 33.4284 25.8492 33.6491 26.4487C33.9427 27.2462 34.0223 28.5628 33.8117 29.14C33.6214 29.6616 33.3008 30.0792 32.5724 30.7541C32.2233 31.0777 31.9256 31.4474 31.9256 31.5576C31.9256 31.5909 31.9044 31.6337 31.8784 31.6526C31.8003 31.7092 31.6578 31.9979 31.5939 32.2288C31.5609 32.348 31.5175 32.7056 31.4976 33.0235C31.4462 33.8412 31.5469 34.1313 32.0429 34.5941C32.2806 34.816 32.4152 34.901 32.9273 35.1526C33.2474 35.31 33.315 35.3276 33.7038 35.3555C33.9381 35.3722 34.1751 35.4016 34.2306 35.4207C34.4178 35.485 34.6003 35.6382 34.6003 35.7309C34.6003 35.8311 34.4876 35.9416 34.4147 35.9129C34.3897 35.903 34.297 35.9129 34.2088 35.9341C33.9356 36.0006 33.5694 36.0144 30.9916 36.0548L29.8799 36.073C29.7558 36.0756 29.7244 36.0972 29.6939 36.201C29.6334 36.4066 29.2255 36.555 28.8021 36.5253C28.36 36.4943 27.53 36.4282 27.4289 36.416C27.3686 36.4087 26.8082 36.3936 26.1836 36.3824C24.9846 36.3609 24.8327 36.3717 23.8874 36.546C23.6539 36.589 23.3419 36.6325 23.194 36.6427C22.9411 36.66 22.9144 36.6533 22.7449 36.5311L22.745 36.5311ZM23.6441 35.4338C24.453 34.9228 24.8938 34.7116 25.3565 34.6136C25.8727 34.5042 26.7542 34.5493 27.0292 34.6992C27.3226 34.8591 27.319 34.8588 27.5107 34.7392C27.8176 34.5477 28.3636 34.423 29.0105 34.3967C29.2622 34.3864 29.9328 34.4688 30.2558 34.5497C30.5265 34.6174 30.9068 34.6782 30.9068 34.6537C30.9068 34.6474 30.8678 34.5922 30.8201 34.5311C30.6163 34.2705 30.5058 33.5374 30.5927 33.0235C30.6062 32.944 30.6301 32.7977 30.6458 32.6984C30.6615 32.599 30.7277 32.3901 30.7928 32.2342C30.858 32.0782 30.9495 31.8181 30.9963 31.6562C31.043 31.4942 31.143 31.1748 31.2184 30.9463C31.2939 30.7178 31.3837 30.3601 31.418 30.1515C31.4523 29.9429 31.5046 29.6503 31.5341 29.5013C31.5636 29.3523 31.6381 28.954 31.6995 28.6162C31.7609 28.2785 31.8368 27.8883 31.8682 27.7492C31.8996 27.6102 31.9638 27.2688 32.011 26.9906C32.0582 26.7125 32.1113 26.4605 32.129 26.4307C32.19 26.3278 32.3302 24.9663 32.3258 24.519C32.3234 24.2723 32.2971 23.9797 32.2675 23.8688C32.2378 23.7579 32.1886 23.5748 32.1582 23.462C32.0748 23.1531 31.9343 22.2779 31.9417 22.1137C31.9507 21.9133 31.8165 21.3359 31.69 21.0308C31.6248 20.8736 31.5558 20.5993 31.476 20.181C31.4476 20.032 31.3972 19.8646 31.364 19.8089L31.3036 19.7077L31.0628 19.8141C30.9303 19.8726 30.7455 19.9732 30.6521 20.0377C30.5587 20.1022 30.4045 20.2056 30.3096 20.2674C30.2146 20.3292 30.0903 20.4285 30.0334 20.4881C29.7608 20.7734 29.4902 20.8647 29.3102 20.732C29.1987 20.6497 29.1024 20.3093 29.0884 19.9479C29.0762 19.6328 29.0078 19.4605 28.7875 19.1905C28.6362 19.005 28.5994 18.8296 28.7033 18.7886C28.7998 18.7505 29.0954 18.7466 29.0954 18.7834C29.0954 18.8017 29.1463 18.8082 29.2086 18.7979C29.2709 18.7875 29.3218 18.7929 29.3218 18.81C29.3218 18.8271 29.3986 18.8348 29.4925 18.8272C29.5981 18.8187 29.6496 18.8274 29.6277 18.8501C29.6057 18.8728 29.6753 18.8842 29.8108 18.8801C29.931 18.8765 30.0485 18.8772 30.0719 18.8816C30.1314 18.8928 30.1692 18.8981 30.4252 18.9306C30.5495 18.9464 30.6769 18.9698 30.7083 18.9826C30.7396 18.9954 30.7908 19.0065 30.8219 19.0073C30.853 19.008 30.8701 19.0394 30.8597 19.0769C30.8494 19.1145 30.8669 19.1792 30.8985 19.2206C30.9302 19.2621 31.0126 19.3773 31.0816 19.4766C31.1728 19.608 31.2139 19.6388 31.2322 19.5897C31.2628 19.5077 31.1431 19.2146 31.039 19.1164C30.9974 19.0772 30.9634 19.0162 30.9634 18.9809C30.9634 18.9446 30.9217 18.9167 30.8675 18.9167C30.8147 18.9167 30.7051 18.8761 30.6239 18.8265C30.5254 18.7663 30.3644 18.7237 30.1397 18.6983C29.9545 18.6775 29.703 18.6358 29.5807 18.6057C29.356 18.5503 28.6681 18.5409 28.5576 18.5917C28.5265 18.606 28.4373 18.6275 28.3595 18.6394C28.1838 18.6664 27.6441 18.996 27.5953 19.1062C27.5754 19.151 27.4963 19.2642 27.4194 19.3577C27.2374 19.5789 27.0674 19.8968 27.0255 20.0941C26.9106 20.6346 26.905 23.3708 27.0172 24.1368C27.0346 24.256 27.0664 24.6055 27.0877 24.9135C27.1091 25.2214 27.1369 25.4844 27.1495 25.4979C27.1621 25.5114 27.1844 25.6333 27.1991 25.7689C27.2137 25.9044 27.2431 26.1372 27.2643 26.2862C27.3346 26.7795 27.3086 27.3078 27.2073 27.4442C27.1565 27.5127 27.1029 27.6662 27.0882 27.7854C27.032 28.24 26.9858 28.4397 26.9098 28.5575C26.8665 28.6245 26.8311 28.7064 26.8311 28.7395C26.8311 28.7726 26.7807 28.8628 26.7191 28.9398C26.6576 29.0169 26.5777 29.1382 26.5416 29.2094C26.4371 29.4158 26.0552 29.9172 25.9669 29.964C25.9226 29.9875 25.8403 30.0718 25.784 30.1514C25.7278 30.231 25.6608 30.2961 25.6352 30.2961C25.6096 30.2961 25.547 30.3475 25.496 30.4104C25.346 30.5955 24.4759 31.1007 23.943 31.3121C23.7448 31.3907 22.6167 31.6306 22.322 31.6568C21.8404 31.6997 21.4572 31.3663 21.5345 30.9717C21.5554 30.8648 21.7378 30.4699 21.9398 30.0942C22.3451 29.3403 22.4318 29.1609 22.5313 28.8691C22.5584 28.7897 22.5799 28.6108 22.5791 28.4718L22.5775 28.2189L22.4724 28.4356C22.4146 28.5548 22.3149 28.7662 22.2509 28.9053C22.1868 29.0443 22.0992 29.215 22.0562 29.2846C22.0131 29.3541 21.9324 29.5086 21.8768 29.6278C21.8212 29.747 21.7181 29.9583 21.6476 30.0974C21.5771 30.2365 21.4794 30.4664 21.4305 30.6084C21.3162 30.9399 21.2488 31.5791 21.3216 31.6406C21.3517 31.666 21.4087 31.76 21.4481 31.8494C21.4875 31.9389 21.621 32.1908 21.7447 32.4094C21.9829 32.83 22.2912 33.5572 22.3268 33.7821C22.3331 33.8219 22.3557 33.9438 22.3771 34.0531C22.3986 34.1623 22.427 34.5281 22.4403 34.8659C22.4693 35.6037 22.584 35.8926 22.8486 35.8949C22.8843 35.8949 23.2423 35.6877 23.6441 35.4339L23.6441 35.4338ZM30.948 15.2163C31.8564 15.0494 32.2317 14.9307 32.608 14.6911C33.0381 14.4172 33.5967 13.8556 33.887 13.4053C33.9517 13.305 34.0768 13.1505 34.1649 13.0622C34.253 12.9738 34.413 12.7963 34.5205 12.6679C34.7233 12.4254 35.1758 12.0477 35.5912 11.7741C35.7235 11.6869 35.8317 11.6086 35.8317 11.6001C35.8317 11.577 35.1497 11.6547 34.643 11.7355C34.4029 11.7738 33.413 12.0884 33.2281 12.1852C33.1813 12.2097 32.9774 12.3106 32.775 12.4094C32.5727 12.5082 32.3472 12.6268 32.2739 12.673C32.0984 12.7836 31.6764 13.3218 31.5069 13.651C31.3521 13.9518 31.3093 14.019 31.0104 14.4311C30.774 14.757 30.5436 14.9874 30.2385 15.2029C30.0668 15.3242 30.0578 15.3398 30.16 15.3398C30.2234 15.3398 30.578 15.2842 30.9481 15.2162L30.948 15.2163ZM28.563 14.8121C29.1572 14.6321 29.2659 14.2406 28.767 14.0774C28.6568 14.0414 28.5998 14.0485 28.3991 14.1236C28.1185 14.2286 27.8053 14.4654 27.7323 14.6278C27.6593 14.7901 27.66 14.7922 27.8643 14.8298C28.1443 14.8814 28.3513 14.8762 28.563 14.8121V14.8121ZM28.0463 14.6153C27.9893 14.5565 28.0651 14.4112 28.1655 14.3866C28.215 14.3745 28.3171 14.3745 28.3924 14.3865C28.5427 14.4106 28.5809 14.534 28.4615 14.6102C28.3776 14.6637 28.0966 14.6672 28.0463 14.6153L28.0463 14.6153ZM33.0864 19.793C33.0241 19.7831 32.8655 19.7119 32.7339 19.6347C32.5914 19.5511 32.4382 19.4943 32.3555 19.4943C31.9675 19.4943 31.7895 19.3293 31.7339 18.9183C31.7034 18.693 31.7549 18.6083 31.9403 18.5786C32.0835 18.5556 32.5328 18.2838 32.7281 18.1018C32.882 17.9586 33.1658 17.8564 33.3154 17.8904C33.6856 17.9746 33.7591 18.1562 33.5892 18.5679C33.5165 18.7439 33.5047 18.8887 33.532 19.2674C33.5643 19.7141 33.5595 19.7474 33.4576 19.7822C33.3438 19.8211 33.2752 19.8231 33.0864 19.793L33.0864 19.793Z" fill="white"/>
</g>
<path d="M11.784 44.242C11.608 44.242 11.488 44.162 11.424 44.002L9.36 38.57C9.40267 38.5486 9.45333 38.5326 9.512 38.522C9.57067 38.506 9.624 38.498 9.672 38.498C9.82133 38.498 9.94667 38.5353 10.048 38.61C10.1547 38.6793 10.232 38.778 10.28 38.906L11.744 42.994L11.6 43.402L11.664 43.426L13.288 38.906C13.336 38.778 13.4133 38.6793 13.52 38.61C13.6267 38.5353 13.7547 38.498 13.904 38.498C13.9947 38.498 14.0987 38.522 14.216 38.57L12.152 44.002C12.1253 44.0766 12.08 44.1353 12.016 44.178C11.952 44.2206 11.8747 44.242 11.784 44.242ZM15.3068 39.498C15.1574 39.498 15.0321 39.45 14.9308 39.354C14.8294 39.258 14.7788 39.138 14.7788 38.994C14.7788 38.85 14.8294 38.7326 14.9308 38.642C15.0321 38.546 15.1574 38.498 15.3068 38.498C15.4508 38.498 15.5734 38.546 15.6748 38.642C15.7761 38.7326 15.8268 38.85 15.8268 38.994C15.8268 39.138 15.7761 39.258 15.6748 39.354C15.5734 39.45 15.4508 39.498 15.3068 39.498ZM14.9548 40.61C14.9548 40.434 15.0108 40.306 15.1228 40.226C15.2401 40.1406 15.4161 40.098 15.6508 40.098V43.73C15.6508 43.906 15.5921 44.0366 15.4748 44.122C15.3628 44.202 15.1894 44.242 14.9548 44.242V40.61ZM18.5426 44.242C18.164 44.242 17.8813 44.1353 17.6946 43.922C17.508 43.7033 17.4146 43.418 17.4146 43.066V40.73H16.6706C16.6706 40.5486 16.7106 40.41 16.7906 40.314C16.8706 40.218 16.98 40.17 17.1186 40.17H17.4226V39.41C17.4226 39.234 17.4786 39.106 17.5906 39.026C17.708 38.9406 17.8813 38.898 18.1106 38.898V40.17H19.1746C19.1746 40.5433 19.0066 40.73 18.6706 40.73H18.1186V43.042C18.1186 43.2553 18.156 43.4073 18.2306 43.498C18.3106 43.5833 18.452 43.626 18.6546 43.626C18.8413 43.626 19.0173 43.578 19.1826 43.482C19.252 43.5513 19.2866 43.6446 19.2866 43.762C19.2866 43.89 19.22 44.002 19.0866 44.098C18.9533 44.194 18.772 44.242 18.5426 44.242ZM21.4472 44.242C21.1219 44.242 20.8259 44.1806 20.5592 44.058C20.2979 43.9353 20.0925 43.77 19.9432 43.562C19.7992 43.3486 19.7272 43.1113 19.7272 42.85V41.538C19.7272 41.2713 19.7992 41.0286 19.9432 40.81C20.0925 40.5913 20.2979 40.418 20.5592 40.29C20.8205 40.162 21.1165 40.098 21.4472 40.098C21.7779 40.098 22.0739 40.162 22.3352 40.29C22.6019 40.418 22.8072 40.5913 22.9512 40.81C23.1005 41.0286 23.1752 41.2713 23.1752 41.538V42.85C23.1752 43.1113 23.1005 43.3486 22.9512 43.562C22.8019 43.77 22.5965 43.9353 22.3352 44.058C22.0739 44.1806 21.7779 44.242 21.4472 44.242ZM21.4472 43.642C21.7672 43.642 22.0205 43.5673 22.2072 43.418C22.3992 43.2633 22.4952 43.0633 22.4952 42.818V41.562C22.4952 41.306 22.3992 41.098 22.2072 40.938C22.0205 40.778 21.7672 40.698 21.4472 40.698C21.1325 40.698 20.8792 40.778 20.6872 40.938C20.4952 41.098 20.3992 41.306 20.3992 41.562V42.818C20.3992 43.0633 20.4925 43.2633 20.6792 43.418C20.8712 43.5673 21.1272 43.642 21.4472 43.642ZM25.8351 40.714C25.5364 40.714 25.2884 40.8046 25.0911 40.986C24.8937 41.162 24.7951 41.378 24.7951 41.634V43.73C24.7951 43.906 24.7364 44.0366 24.6191 44.122C24.5071 44.202 24.3337 44.242 24.0991 44.242V40.69C24.0991 40.2953 24.3231 40.098 24.7711 40.098V40.586C24.6857 40.6766 24.6271 40.7566 24.5951 40.826L24.6271 40.858C24.9684 40.3513 25.3951 40.098 25.9071 40.098C26.0991 40.098 26.2457 40.146 26.3471 40.242C26.4484 40.3326 26.4991 40.4446 26.4991 40.578C26.4991 40.674 26.4751 40.7593 26.4271 40.834C26.2777 40.754 26.0804 40.714 25.8351 40.714ZM29.4038 39.122C29.4038 38.9246 29.4704 38.7726 29.6038 38.666C29.7371 38.554 29.9211 38.498 30.1558 38.498L32.0918 43.146L31.9398 43.522L31.9958 43.546L34.0438 38.498C34.2784 38.498 34.4624 38.554 34.5958 38.666C34.7344 38.778 34.8038 38.9326 34.8038 39.13V44.242C34.3078 44.242 34.0598 44.0366 34.0598 43.626V40.258L34.2678 39.706L34.2038 39.69L32.4198 44.026C32.3931 44.09 32.3504 44.1406 32.2918 44.178C32.2331 44.2206 32.1718 44.242 32.1078 44.242C32.0384 44.242 31.9744 44.2233 31.9158 44.186C31.8571 44.1486 31.8144 44.0953 31.7878 44.026L30.0038 39.682L29.9398 39.706L30.1478 40.25V43.626C30.1478 43.8286 30.0838 43.9833 29.9558 44.09C29.8331 44.1913 29.6491 44.242 29.4038 44.242V39.122ZM37.2552 44.242C36.7965 44.242 36.4259 44.1193 36.1432 43.874C35.8659 43.6286 35.7272 43.306 35.7272 42.906C35.7272 42.5006 35.8739 42.1753 36.1672 41.93C36.4605 41.6793 36.8472 41.554 37.3272 41.554C37.8392 41.554 38.2605 41.7353 38.5912 42.098L38.6232 42.066C38.5645 42.002 38.4979 41.9353 38.4232 41.866V41.53C38.4232 41.258 38.3379 41.0473 38.1672 40.898C37.9965 40.7486 37.7539 40.674 37.4392 40.674C36.8792 40.674 36.4792 40.8953 36.2392 41.338C36.1539 41.2953 36.0819 41.2393 36.0232 41.17C35.9699 41.0953 35.9432 41.0206 35.9432 40.946C35.9432 40.802 36.0152 40.666 36.1592 40.538C36.3032 40.4046 36.4925 40.298 36.7272 40.218C36.9672 40.138 37.2179 40.098 37.4792 40.098C37.9859 40.098 38.3832 40.2233 38.6712 40.474C38.9645 40.7246 39.1112 41.0713 39.1112 41.514V43.706C39.1112 43.8926 39.0579 44.0286 38.9512 44.114C38.8445 44.1993 38.6765 44.242 38.4472 44.242V43.866C38.5592 43.7486 38.6205 43.6793 38.6312 43.658L38.5992 43.626C38.2525 44.0366 37.8045 44.242 37.2552 44.242ZM37.3752 43.69C37.7059 43.69 37.9645 43.6206 38.1512 43.482C38.3432 43.3433 38.4392 43.1513 38.4392 42.906C38.4392 42.6606 38.3459 42.466 38.1592 42.322C37.9725 42.178 37.7165 42.106 37.3912 42.106C37.0872 42.106 36.8472 42.178 36.6712 42.322C36.5005 42.4606 36.4152 42.6553 36.4152 42.906C36.4152 43.1566 36.4979 43.3513 36.6632 43.49C36.8339 43.6233 37.0712 43.69 37.3752 43.69ZM40.5768 40.73H39.9128C39.9128 40.3566 40.0515 40.17 40.3288 40.17H40.5768V39.682C40.5768 39.3353 40.6755 39.0526 40.8728 38.834C41.0701 38.61 41.3661 38.498 41.7608 38.498C41.9848 38.498 42.1581 38.5486 42.2808 38.65C42.4035 38.746 42.4648 38.858 42.4648 38.986C42.4648 39.098 42.4301 39.1886 42.3608 39.258C42.1955 39.162 42.0168 39.114 41.8248 39.114C41.6275 39.114 41.4861 39.162 41.4008 39.258C41.3155 39.354 41.2728 39.506 41.2728 39.714V40.17H42.2728C42.2728 40.362 42.2301 40.5033 42.1448 40.594C42.0648 40.6846 41.9395 40.73 41.7688 40.73H41.2728V43.73C41.2728 43.906 41.2141 44.0366 41.0968 44.122C40.9848 44.202 40.8115 44.242 40.5768 44.242V40.73ZM44.3868 44.242C44.0614 44.242 43.7708 44.1806 43.5148 44.058C43.2588 43.93 43.0588 43.7566 42.9148 43.538C42.7708 43.314 42.6988 43.0633 42.6988 42.786V41.602C42.6988 41.3193 42.7734 41.0633 42.9228 40.834C43.0774 40.6046 43.2828 40.426 43.5388 40.298C43.8001 40.1646 44.0828 40.098 44.3868 40.098C44.6908 40.098 44.9681 40.162 45.2188 40.29C45.4748 40.418 45.6748 40.594 45.8188 40.818C45.9681 41.042 46.0428 41.2953 46.0428 41.578V42.09C46.0428 42.1753 46.0108 42.2473 45.9468 42.306C45.8828 42.3646 45.8054 42.394 45.7148 42.394H43.3788V42.754C43.3788 43.026 43.4641 43.2446 43.6348 43.41C43.8108 43.5753 44.0614 43.658 44.3868 43.658C44.7121 43.658 44.9601 43.586 45.1308 43.442C45.3014 43.298 45.3868 43.1033 45.3868 42.858C45.5468 42.8473 45.6801 42.8793 45.7868 42.954C45.8988 43.0233 45.9548 43.1273 45.9548 43.266C45.9548 43.4366 45.8801 43.5966 45.7308 43.746C45.5868 43.8953 45.3948 44.0153 45.1548 44.106C44.9148 44.1966 44.6588 44.242 44.3868 44.242ZM45.3948 41.85V41.578C45.3948 41.3113 45.3014 41.0953 45.1148 40.93C44.9334 40.7593 44.6908 40.674 44.3868 40.674C44.0828 40.674 43.8374 40.7593 43.6508 40.93C43.4694 41.0953 43.3788 41.3113 43.3788 41.578V41.85H45.3948ZM47.4943 39.498C47.3449 39.498 47.2196 39.45 47.1183 39.354C47.0169 39.258 46.9663 39.138 46.9663 38.994C46.9663 38.85 47.0169 38.7326 47.1183 38.642C47.2196 38.546 47.3449 38.498 47.4943 38.498C47.6383 38.498 47.7609 38.546 47.8623 38.642C47.9636 38.7326 48.0143 38.85 48.0143 38.994C48.0143 39.138 47.9636 39.258 47.8623 39.354C47.7609 39.45 47.6383 39.498 47.4943 39.498ZM47.1423 40.61C47.1423 40.434 47.1983 40.306 47.3103 40.226C47.4276 40.1406 47.6036 40.098 47.8383 40.098V43.73C47.8383 43.906 47.7796 44.0366 47.6623 44.122C47.5503 44.202 47.3769 44.242 47.1423 44.242V40.61Z" fill="white"/>
<defs>
<clipPath id="clip0_19_64">
<rect width="20.52" height="25.65" fill="white" transform="translate(18 11)"/>
</clipPath>
</defs>
</svg>
